<svg width="192" height="192" viewBox="0 0 192 192" fill="none" xmlns="http://www.w3.org/2000/svg">
<g clip-path="url(#clip0_3448_11433)">
<path d="M34.9315 145.68C16.262 131.37 3.5624 110.46 0.61249 87.1C-2.54742 62.05 5.13236 31.8 56.7208 24.35C154.268 10.27 220.386 95.6 179.887 137.8C145.438 173.7 82.4601 182.1 34.9315 145.67V145.68Z" fill="#EAEAEA"/>
<path d="M174.037 171.5H16.802C16.522 171.5 16.302 171.28 16.302 171C16.302 170.72 16.522 170.5 16.802 170.5H174.037C174.317 170.5 174.537 170.72 174.537 171C174.537 171.28 174.317 171.5 174.037 171.5Z" fill="black"/>
<path d="M115.475 65.1532L71.3875 61.7454C70.8369 61.7028 70.356 62.1147 70.3134 62.6653L67.5275 98.7078C67.4849 99.2585 67.8968 99.7393 68.4474 99.7819L112.535 103.19C113.085 103.232 113.566 102.82 113.609 102.27L116.395 66.2273C116.437 65.6766 116.025 65.1957 115.475 65.1532Z" fill="white"/>
<path d="M112.629 103.69C112.629 103.69 112.549 103.69 112.509 103.69L68.4205 100.29C67.5906 100.23 66.9806 99.5 67.0406 98.68L69.8205 62.64C69.8505 62.24 70.0305 61.88 70.3405 61.62C70.6405 61.36 71.0305 61.23 71.4304 61.26L115.519 64.66C116.339 64.72 116.959 65.45 116.899 66.27L114.119 102.31C114.089 102.71 113.899 103.07 113.599 103.33C113.329 103.56 112.979 103.69 112.629 103.69ZM71.3204 62.24C71.2004 62.24 71.0904 62.28 71.0005 62.36C70.9005 62.45 70.8405 62.57 70.8305 62.7L68.0505 98.74C68.0505 98.87 68.0805 99 68.1705 99.1C68.2605 99.2 68.3805 99.26 68.5105 99.27L112.599 102.67C112.859 102.69 113.119 102.48 113.139 102.21L115.919 66.17C115.939 65.89 115.729 65.65 115.459 65.63L71.3704 62.23C71.3704 62.23 71.3404 62.23 71.3304 62.23L71.3204 62.24Z" fill="black"/>
<path d="M115.45 65.65L106.1 64.93L103.24 101.96L112.59 102.68C112.87 102.7 113.11 102.5 113.13 102.22L115.91 66.18C115.93 65.9 115.73 65.66 115.45 65.64V65.65Z" fill="#094BF4"/>
<path d="M93.1497 63.89C92.8697 63.89 92.6497 63.67 92.6497 63.39V45.49C92.6497 45.21 92.8697 44.99 93.1497 44.99C93.4297 44.99 93.6497 45.21 93.6497 45.49V63.39C93.6497 63.67 93.4297 63.89 93.1497 63.89Z" fill="black"/>
<path d="M92.1798 131.15H21.0919V171H92.1798V131.15Z" fill="white"/>
<path d="M80.8 139.65H32.4814C31.8739 139.65 31.3815 140.142 31.3815 140.75V152.94C31.3815 153.548 31.8739 154.04 32.4814 154.04H80.8C81.4075 154.04 81.9 153.548 81.9 152.94V140.75C81.9 140.142 81.4075 139.65 80.8 139.65Z" fill="#094BF4"/>
<path d="M56.6412 154.54C56.3612 154.54 56.1412 154.32 56.1412 154.04V139.65C56.1412 139.37 56.3612 139.15 56.6412 139.15C56.9212 139.15 57.1412 139.37 57.1412 139.65V154.04C57.1412 154.32 56.9212 154.54 56.6412 154.54ZM69.5412 154.04V139.65C69.5412 139.37 69.3212 139.15 69.0412 139.15C68.7612 139.15 68.5412 139.37 68.5412 139.65V154.04C68.5412 154.32 68.7612 154.54 69.0412 154.54C69.3212 154.54 69.5412 154.32 69.5412 154.04ZM44.1112 154.04V139.65C44.1112 139.37 43.8912 139.15 43.6112 139.15C43.3312 139.15 43.1112 139.37 43.1112 139.65V154.04C43.1112 154.32 43.3312 154.54 43.6112 154.54C43.8912 154.54 44.1112 154.32 44.1112 154.04Z" fill="black"/>
<path d="M95.9996 123.32H92.6797V115.18H95.9996C96.2796 115.18 96.4996 114.96 96.4996 114.68C96.4996 114.4 96.2796 114.18 95.9996 114.18H92.6797V107.45C92.6797 107.17 92.4597 106.95 92.1797 106.95C91.8997 106.95 91.6798 107.17 91.6798 107.45V114.18H74.6803V107.45C74.6803 107.17 74.4603 106.95 74.1803 106.95C73.9003 106.95 73.6803 107.17 73.6803 107.45V114.18H58.2607V107.45C58.2607 107.17 58.0407 106.95 57.7608 106.95C57.4808 106.95 57.2608 107.17 57.2608 107.45V114.18H50.281C50.001 114.18 49.781 114.4 49.781 114.68C49.781 114.96 50.001 115.18 50.281 115.18H57.2608V123.32H39.9313V85.47C39.9313 85.19 39.7113 84.97 39.4313 84.97C39.1513 84.97 38.9313 85.19 38.9313 85.47V123.32H21.6018V107.45C21.6018 107.17 21.3818 106.95 21.1018 106.95C20.8218 106.95 20.6019 107.17 20.6019 107.45V123.32H17.6319C17.352 123.32 17.132 123.54 17.132 123.82C17.132 124.1 17.352 124.32 17.6319 124.32H20.6019V171C20.6019 171.28 20.8218 171.5 21.1018 171.5H92.1897C92.4697 171.5 92.6897 171.28 92.6897 171V124.32H96.0096C96.2896 124.32 96.5096 124.1 96.5096 123.82C96.5096 123.54 96.2896 123.32 96.0096 123.32H95.9996ZM58.2607 115.18H73.6803V123.32H58.2607V115.18ZM58.2607 124.32H73.6803V130.65H58.2607V124.32ZM39.9313 124.32H57.2608V130.65H39.9313V124.32ZM21.6018 124.32H38.9313V130.65H21.6018V124.32ZM91.6898 170.5H21.5918V165H91.6798V170.5H91.6898ZM91.6898 164H21.5918V131.66H91.6798V164H91.6898ZM91.6898 130.66H74.6903V124.33H91.6898V130.66ZM91.6898 123.33H74.6903V115.19H91.6898V123.33Z" fill="black"/>
<path d="M150.869 90.7H130.569V70.4H150.869V90.7ZM150.869 125.08H130.569V145.38H150.869V125.08Z" fill="white"/>
<path d="M170.967 31.91L148.978 24.3V13.57C148.978 13.29 148.758 13.07 148.478 13.07H135.109C135.109 13.07 135.059 13.08 135.029 13.09C134.989 13.09 134.959 13.09 134.919 13.11L86.26 32.74C86.26 32.74 86.24 32.75 86.24 32.76C86.21 32.78 86.18 32.8 86.15 32.82C86.13 32.84 86.11 32.85 86.09 32.87C86.06 32.9 86.05 32.93 86.03 32.96C86.02 32.98 86 33 85.99 33.02C85.98 33.06 85.97 33.1 85.97 33.14C85.97 33.16 85.96 33.18 85.96 33.21V45.5C85.96 45.78 86.18 46 86.4599 46H130.079V171.01C130.079 171.29 130.299 171.51 130.579 171.51H150.878C151.158 171.51 151.378 171.29 151.378 171.01H154.808V45.99H170.807C171.087 45.99 171.307 45.77 171.307 45.49V32.38C171.307 32.17 171.177 31.98 170.967 31.91ZM135.608 14.08H147.978V24.23L135.608 25.93V14.08ZM134.609 14.32V26.07L90.3798 32.17L134.609 14.33V14.32ZM109.829 45H86.9599V33.65L109.829 30.5V45ZM125.239 45H110.829V30.36L125.239 28.37V45ZM126.239 28.24L147.988 25.24V45H126.249V28.26C126.249 28.26 126.249 28.25 126.249 28.24H126.239ZM150.388 46V62.9H131.089V46H150.388ZM150.388 144.18L141.448 135.24L150.388 126.3V144.19V144.18ZM150.388 89.5L141.448 80.56L150.388 71.62V89.51V89.5ZM149.678 90.21H131.789L140.728 81.27L149.668 90.21H149.678ZM140.738 79.85L131.799 70.91H149.688L140.748 79.85H140.738ZM140.028 80.56L131.089 89.5V71.61L140.028 80.55V80.56ZM131.089 91.21H150.388V107.76H131.089V91.21ZM150.388 69.91H131.089V63.9H150.388V69.91ZM131.089 126.3L140.028 135.24L131.089 144.18V126.29V126.3ZM131.799 125.59H149.688L140.748 134.53L131.809 125.59H131.799ZM140.738 135.95L149.678 144.89H131.789L140.728 135.95H140.738ZM131.089 124.59V108.76H150.388V124.59H131.089ZM131.089 170.51V145.89H150.388V170.51H131.089ZM170.317 45H148.988V25.37L170.317 32.75V45Z" fill="black"/>
<path d="M171.347 164.36H109.929V171H171.347V164.36Z" fill="white"/>
<path d="M171.337 171.5H109.919C109.639 171.5 109.419 171.28 109.419 171V164.36C109.419 164.08 109.639 163.86 109.919 163.86H171.337C171.617 163.86 171.837 164.08 171.837 164.36V171C171.837 171.28 171.617 171.5 171.337 171.5ZM110.419 170.5H170.837V164.86H110.419V170.5Z" fill="black"/>
<path d="M125.909 164.36H117.129V163.89C117.129 161.46 119.099 159.5 121.519 159.5C123.949 159.5 125.909 161.47 125.909 163.89V164.36ZM168.348 164.36H159.568V163.89C159.568 161.46 161.538 159.5 163.958 159.5C166.388 159.5 168.348 161.47 168.348 163.89V164.36Z" fill="black"/>
<path d="M63.281 61.48L52.761 64.6C52.101 64.8 51.441 64.27 51.491 63.58L51.921 57.77C51.971 57.15 52.561 56.73 53.161 56.89L63.261 59.58C64.221 59.84 64.241 61.2 63.291 61.48H63.281ZM66.871 57.22L62.601 43.09C62.351 42.25 61.401 41.85 60.621 42.26L53.331 46.06C52.461 46.51 52.321 47.69 53.041 48.34L64.601 58.67C65.651 59.61 67.271 58.58 66.871 57.23V57.22Z" fill="#FFD91A"/>
</g>
<defs>
<clipPath id="clip0_3448_11433">
<rect width="192" height="192" fill="white"/>
</clipPath>
</defs>
</svg>
