<?xml version="1.0" encoding="UTF-8" standalone="no"?>
<!-- Created with Inkscape (http://www.inkscape.org/) -->

<svg
   version="1.1"
   id="svg393"
   xml:space="preserve"
   width="682.66669"
   height="682.66669"
   viewBox="0 0 682.66669 682.66669"
   xmlns="http://www.w3.org/2000/svg"
   xmlns:svg="http://www.w3.org/2000/svg"><defs
     id="defs397"><clipPath
       clipPathUnits="userSpaceOnUse"
       id="clipPath407"><path
         d="M 0,512 H 512 V 0 H 0 Z"
         id="path405" /></clipPath></defs><g
     id="g399"
     transform="matrix(1.3333333,0,0,-1.3333333,0,682.66667)"><g
       id="g401"><g
         id="g403"
         clip-path="url(#clipPath407)"><g
           id="g409"
           transform="translate(344.5,416)"><path
             d="m 0,0 h 31.02 c 16.57,0 30,-13.43 30,-30 V -408.5 H -238.5 V -30 c 0,16.57 13.43,30 30,30 h 31.5"
             style="fill:none;stroke:#000000;stroke-width:15;stroke-linecap:round;stroke-linejoin:round;stroke-miterlimit:10;stroke-dasharray:none;stroke-opacity:1"
             id="path411" /></g><g
           id="g413"
           transform="translate(256,327.5)"><path
             d="M 0,0 C -48.799,0 -88.5,39.701 -88.5,88.5 -88.5,137.299 -48.799,177 0,177 48.799,177 88.5,137.299 88.5,88.5 88.5,39.701 48.799,0 0,0 Z"
             style="fill:none;stroke:#000000;stroke-width:15;stroke-linecap:round;stroke-linejoin:round;stroke-miterlimit:10;stroke-dasharray:none;stroke-opacity:1"
             id="path415" /></g><g
           id="g417"
           transform="translate(308.5,431)"><path
             d="m 0,0 h -34.5 c -1.657,0 -3,1.343 -3,3 v 34.5 c 0,3.313 -2.687,6 -6,6 h -18 c -3.313,0 -6,-2.687 -6,-6 V 3 c 0,-1.657 -1.343,-3 -3,-3 H -105 c -3.313,0 -6,-2.687 -6,-6 v -18 c 0,-3.313 2.687,-6 6,-6 h 34.5 c 1.657,0 3,-1.343 3,-3 v -34.5 c 0,-3.313 2.687,-6 6,-6 h 18 c 3.313,0 6,2.687 6,6 V -33 c 0,1.657 1.343,3 3,3 H 0 c 3.313,0 6,2.687 6,6 V -6 C 6,-2.687 3.313,0 0,0 Z"
             style="fill:none;stroke:#000000;stroke-width:15;stroke-linecap:round;stroke-linejoin:round;stroke-miterlimit:10;stroke-dasharray:none;stroke-opacity:1"
             id="path419" /></g><g
           id="g421"
           transform="translate(330.5244,154.5737)"><path
             d="M 0,0 V -147.074"
             style="fill:none;stroke:#000000;stroke-width:15;stroke-linecap:round;stroke-linejoin:round;stroke-miterlimit:10;stroke-dasharray:none;stroke-opacity:1"
             id="path423" /></g><g
           id="g425"
           transform="translate(181.4756,93.9648)"><path
             d="M 0,0 V 60.609"
             style="fill:none;stroke:#000000;stroke-width:15;stroke-linecap:round;stroke-linejoin:round;stroke-miterlimit:10;stroke-dasharray:none;stroke-opacity:1"
             id="path427" /></g><g
           id="g429"
           transform="translate(181.4756,7.5)"><path
             d="M 0,0 V 51.465"
             style="fill:none;stroke:#000000;stroke-width:15;stroke-linecap:round;stroke-linejoin:round;stroke-miterlimit:10;stroke-dasharray:none;stroke-opacity:1"
             id="path431" /></g><g
           id="g433"
           transform="translate(339.5244,184.5737)"><path
             d="m 0,0 h -167.049 c -3.314,0 -6,-2.687 -6,-6 v -18 c 0,-3.314 2.686,-6 6,-6 H 0 c 3.314,0 6,2.686 6,6 V -6 C 6,-2.687 3.314,0 0,0 Z"
             style="fill:none;stroke:#000000;stroke-width:15;stroke-linecap:round;stroke-linejoin:round;stroke-miterlimit:10;stroke-dasharray:none;stroke-opacity:1"
             id="path435" /></g><g
           id="g437"
           transform="translate(256,154.5737)"><path
             d="M 0,0 V -147.074"
             style="fill:none;stroke:#000000;stroke-width:15;stroke-linecap:round;stroke-linejoin:round;stroke-miterlimit:10;stroke-dasharray:none;stroke-opacity:1"
             id="path439" /></g><g
           id="g441"
           transform="translate(286,88.7124)"><path
             d="M 0,0 V -15.351"
             style="fill:none;stroke:#000000;stroke-width:15;stroke-linecap:round;stroke-linejoin:round;stroke-miterlimit:10;stroke-dasharray:none;stroke-opacity:1"
             id="path443" /></g><g
           id="g445"
           transform="translate(226,88.7124)"><path
             d="M 0,0 V -15.351"
             style="fill:none;stroke:#000000;stroke-width:15;stroke-linecap:round;stroke-linejoin:round;stroke-miterlimit:10;stroke-dasharray:none;stroke-opacity:1"
             id="path447" /></g><g
           id="g449"
           transform="translate(225.5,229.5698)"><path
             d="m 0,0 h -66.464 c -4.432,0 -8.02,3.604 -7.999,8.037 l 0.167,36.929 c 0.02,4.405 3.596,7.964 8,7.964 H 0 c 4.418,0 8,-3.581 8,-8 V 8 C 8,3.582 4.418,0 0,0 Z"
             style="fill:none;stroke:#000000;stroke-width:15;stroke-linecap:round;stroke-linejoin:round;stroke-miterlimit:10;stroke-dasharray:none;stroke-opacity:1"
             id="path451" /></g><g
           id="g453"
           transform="translate(286.5,282.5)"><path
             d="m 0,0 h 66.224 c 4.432,0 8.02,-3.604 8,-8.036 l -0.168,-36.93 c -0.02,-4.404 -3.596,-7.964 -8,-7.964 H 0 c -4.418,0 -8,3.582 -8,8 V -8 c 0,4.418 3.582,8 8,8 z"
             style="fill:none;stroke:#000000;stroke-width:15;stroke-linecap:round;stroke-linejoin:round;stroke-miterlimit:10;stroke-dasharray:none;stroke-opacity:1"
             id="path455" /></g><g
           id="g457"
           transform="translate(440.5244,345.8564)"><path
             d="m 0,0 h 33.976 c 16.568,0 30,-13.432 30,-30 v -300.356 c 0,-4.419 -3.582,-8 -8,-8 H -35"
             style="fill:none;stroke:#000000;stroke-width:15;stroke-linecap:round;stroke-linejoin:round;stroke-miterlimit:10;stroke-dasharray:none;stroke-opacity:1"
             id="path459" /></g><g
           id="g461"
           transform="translate(405.5244,300.8564)"><path
             d="m 0,0 h 45.976 c 4.432,0 8.02,-3.604 8,-8.036 l -0.168,-36.93 c -0.02,-4.405 -3.596,-7.964 -8,-7.964 H 0"
             style="fill:none;stroke:#000000;stroke-width:15;stroke-linecap:round;stroke-linejoin:round;stroke-miterlimit:10;stroke-dasharray:none;stroke-opacity:1"
             id="path463" /></g><g
           id="g465"
           transform="translate(405.5244,202.9263)"><path
             d="m 0,0 h 45.976 c 4.432,0 8.02,-3.604 8,-8.036 l -0.168,-36.93 c -0.02,-4.404 -3.596,-7.964 -8,-7.964 H 0"
             style="fill:none;stroke:#000000;stroke-width:15;stroke-linecap:round;stroke-linejoin:round;stroke-miterlimit:10;stroke-dasharray:none;stroke-opacity:1"
             id="path467" /></g><g
           id="g469"
           transform="translate(405.5244,105.4302)"><path
             d="m 0,0 h 45.976 c 4.432,0 8.02,-3.604 8,-8.037 l -0.168,-36.929 c -0.02,-4.405 -3.596,-7.964 -8,-7.964 H 0"
             style="fill:none;stroke:#000000;stroke-width:15;stroke-linecap:round;stroke-linejoin:round;stroke-miterlimit:10;stroke-dasharray:none;stroke-opacity:1"
             id="path471" /></g><g
           id="g473"
           transform="translate(106.4756,345.8564)"><path
             d="m 0,0 h -68.976 c -16.568,0 -30,-13.432 -30,-30 v -300.356 c 0,-4.419 3.582,-8 8,-8 H 0"
             style="fill:none;stroke:#000000;stroke-width:15;stroke-linecap:round;stroke-linejoin:round;stroke-miterlimit:10;stroke-dasharray:none;stroke-opacity:1"
             id="path475" /></g><g
           id="g477"
           transform="translate(106,247.9302)"><path
             d="m 0,0 h -45.33 c -4.41,0 -7.98,3.56 -8,7.96 l -0.17,36.93 c -0.02,4.43 3.57,8.04 8,8.04 H 0"
             style="fill:none;stroke:#000000;stroke-width:15;stroke-linecap:round;stroke-linejoin:round;stroke-miterlimit:10;stroke-dasharray:none;stroke-opacity:1"
             id="path479" /></g><g
           id="g481"
           transform="translate(106,150)"><path
             d="m 0,0 h -45.33 c -4.41,0 -7.98,3.56 -8,7.96 l -0.17,36.93 c -0.02,4.43 3.57,8.04 8,8.04 H 0"
             style="fill:none;stroke:#000000;stroke-width:15;stroke-linecap:round;stroke-linejoin:round;stroke-miterlimit:10;stroke-dasharray:none;stroke-opacity:1"
             id="path483" /></g><g
           id="g485"
           transform="translate(106,52.5)"><path
             d="m 0,0 h -45.33 c -4.41,0 -7.98,3.56 -8,7.96 l -0.17,36.93 c -0.02,4.44 3.57,8.04 8,8.04 H 0"
             style="fill:none;stroke:#000000;stroke-width:15;stroke-linecap:round;stroke-linejoin:round;stroke-miterlimit:10;stroke-dasharray:none;stroke-opacity:1"
             id="path487" /></g></g></g></g></svg>
