<svg height="512" viewBox="0 0 64 64" width="512" xmlns="http://www.w3.org/2000/svg"><g id="_03-Bank" data-name="03-Bank"><path d="m32 2a24.0275 24.0275 0 0 0 -24 24c0 18.294 22.44971 35.09766 23.40576 35.8042a.99964.99964 0 0 0 1.18848 0c.95605-.70654 23.40576-17.5102 23.40576-35.8042a24.0275 24.0275 0 0 0 -24-24z" fill="#fc6067"/><circle cx="32" cy="26" fill="#e7eaef" r="18"/><rect fill="#4e5460" height="14" rx="1" width="5" x="24" y="20"/><rect fill="#4e5460" height="14" rx="1" width="5" x="35" y="20"/><g fill="#565d69"><path d="m42.51465 18.14258-10-6a.99866.99866 0 0 0 -1.0293 0l-10 6a.99975.99975 0 0 0 -.48535.85742v2a1 1 0 0 0 1 1h20a1 1 0 0 0 1-1v-2a.99975.99975 0 0 0 -.48535-.85742z"/><rect height="5" rx="1" width="22" x="21" y="31"/></g></g></svg>