<svg height="512" viewBox="0 0 64 64" width="512" xmlns="http://www.w3.org/2000/svg"><g id="_13-Building" data-name="13-Building"><path d="m32 2a24.0275 24.0275 0 0 0 -24 24c0 18.294 22.44971 35.09766 23.40576 35.8042a.99964.99964 0 0 0 1.18848 0c.95605-.70654 23.40576-17.5102 23.40576-35.8042a24.0275 24.0275 0 0 0 -24-24z" fill="#fc6067"/><circle cx="32" cy="26" fill="#e7eaef" r="18"/><rect fill="#4e5460" height="17" rx="1" width="10" x="21" y="20"/><path d="m42 15h-12a1 1 0 0 0 -1 1v21h13a1 1 0 0 0 1-1v-20a1 1 0 0 0 -1-1z" fill="#565d69"/><path d="m38 30h-4a1 1 0 0 0 -1 1v6h6v-6a1 1 0 0 0 -1-1z" fill="#68b1fc"/><g fill="#e7eaef"><path d="m38 22a1 1 0 0 1 -1-1v-1a1 1 0 0 1 2 0v1a1 1 0 0 1 -1 1z"/><path d="m34 22a1 1 0 0 1 -1-1v-1a1 1 0 0 1 2 0v1a1 1 0 0 1 -1 1z"/><path d="m38 27a1 1 0 0 1 -1-1v-1a1 1 0 0 1 2 0v1a1 1 0 0 1 -1 1z"/><path d="m34 27a1 1 0 0 1 -1-1v-1a1 1 0 0 1 2 0v1a1 1 0 0 1 -1 1z"/><path d="m26 27a1 1 0 0 1 -1-1v-1a1 1 0 0 1 2 0v1a1 1 0 0 1 -1 1z"/><path d="m26 32a1 1 0 0 1 -1-1v-1a1 1 0 0 1 2 0v1a1 1 0 0 1 -1 1z"/></g></g></svg>