<svg height="512" viewBox="0 0 64 64" width="512" xmlns="http://www.w3.org/2000/svg"><g id="_02-Hospital" data-name="02-Hospital"><path d="m32 2a24.0275 24.0275 0 0 0 -24 24c0 18.294 22.44971 35.09766 23.40576 35.8042a.99964.99964 0 0 0 1.18848 0c.95605-.70654 23.40576-17.5102 23.40576-35.8042a24.0275 24.0275 0 0 0 -24-24z" fill="#fc6067"/><circle cx="32" cy="26" fill="#e7eaef" r="18"/><path d="m43 22h-7v-7a1 1 0 0 0 -1-1h-6a1 1 0 0 0 -1 1v7h-7a1 1 0 0 0 -1 1v6a1 1 0 0 0 1 1h7v7a1 1 0 0 0 1 1h6a1 1 0 0 0 1-1v-7h7a1 1 0 0 0 1-1v-6a1 1 0 0 0 -1-1z" fill="#fc6067"/></g></svg>