<svg height="512" viewBox="0 0 64 64" width="512" xmlns="http://www.w3.org/2000/svg"><g id="_10-Hotel" data-name="10-Hotel"><path d="m32 2a24.0275 24.0275 0 0 0 -24 24c0 18.294 22.44971 35.09766 23.40576 35.8042a.99964.99964 0 0 0 1.18848 0c.95605-.70654 23.40576-17.5102 23.40576-35.8042a24.0275 24.0275 0 0 0 -24-24z" fill="#fc6067"/><circle cx="32" cy="26" fill="#e7eaef" r="18"/><path d="m43 33a.99974.99974 0 0 1 -1-1v-3a1 1 0 0 1 2 0v3a.99974.99974 0 0 1 -1 1z" fill="#565d69"/><path d="m25 20h-4v6h6a1 1 0 0 0 1-1v-2a3 3 0 0 0 -3-3z" fill="#fcb860"/><path d="m41 24h-20v6h23v-3a3 3 0 0 0 -3-3z" fill="#68b1fc"/><path d="m21 33a.99974.99974 0 0 1 -1-1v-14a1 1 0 0 1 2 0v14a.99974.99974 0 0 1 -1 1z" fill="#565d69"/></g></svg>