<?xml version="1.0" encoding="UTF-8"?>
<svg xmlns="http://www.w3.org/2000/svg" viewBox="0 0 64 64" width="512" height="512"><g id="_04-Gas-station" data-name="04-Gas-station"><path d="M32,2A24.0275,24.0275,0,0,0,8,26C8,44.294,30.44971,61.09766,31.40576,61.8042a.99964.99964,0,0,0,1.18848,0C33.55029,61.09766,56,44.294,56,26A24.0275,24.0275,0,0,0,32,2Z" fill="#fc6067"/><circle cx="32" cy="26" r="18" fill="#e7eaef"/><path d="M44.707,19.293l-4-4A.99989.99989,0,0,0,39.293,16.707L41.58594,19H40a.99974.99974,0,0,0-1,1v4a.99985.99985,0,0,0,.55273.89453L43,26.61816V32a1,1,0,0,1-2,0V30a3.00328,3.00328,0,0,0-3-3H36a1,1,0,0,0,0,2h2a1.001,1.001,0,0,1,1,1v2a3,3,0,0,0,6,0V20A1.00012,1.00012,0,0,0,44.707,19.293ZM41,23.38184V21h2v3.38184Z" fill="#565d69"/><path d="M34,15H25a3.00328,3.00328,0,0,0-3,3V36a.99974.99974,0,0,0,1,1H36a.99974.99974,0,0,0,1-1V18A3.00328,3.00328,0,0,0,34,15Z" fill="#fc6067"/><rect x="26" y="19" width="7" height="6" rx="1" fill="#68b1fc"/><path d="M38,37H21a1,1,0,0,1,0-2H38a1,1,0,0,1,0,2Z" fill="#565d69"/></g></svg>
