<svg height="512" viewBox="0 0 64 64" width="512" xmlns="http://www.w3.org/2000/svg"><g id="_01-Restaurant" data-name="01-Restaurant"><path d="m32 2a24.0275 24.0275 0 0 0 -24 24c0 18.294 22.44971 35.09766 23.40576 35.8042a.99964.99964 0 0 0 1.18848 0c.95605-.70654 23.40576-17.5102 23.40576-35.8042a24.0275 24.0275 0 0 0 -24-24z" fill="#fc6067"/><circle cx="32" cy="26" fill="#e7eaef" r="18"/><g fill="#fcb860"><path d="m30 15a1 1 0 0 0 -1 1v5h-2v-5a1 1 0 0 0 -2 0v5h-2v-5a1 1 0 0 0 -2 0v8a3.00328 3.00328 0 0 0 3 3v8a2 2 0 0 0 4 0v-8a3.00328 3.00328 0 0 0 3-3v-8a1 1 0 0 0 -1-1z"/><path d="m38 15c-2.75684 0-5 2.69141-5 6a6.1418 6.1418 0 0 0 3 5.49548v8.50452a2 2 0 0 0 4 0v-8.50452a6.1418 6.1418 0 0 0 3-5.49548c0-3.30859-2.24316-6-5-6z"/></g></g></svg>