<svg height="512" viewBox="0 0 64 64" width="512" xmlns="http://www.w3.org/2000/svg"><g id="_17-Education" data-name="17-Education"><path d="m32 2a24.0275 24.0275 0 0 0 -24 24c0 18.294 22.44971 35.09766 23.40576 35.8042a.99964.99964 0 0 0 1.18848 0c.95605-.70654 23.40576-17.5102 23.40576-35.8042a24.0275 24.0275 0 0 0 -24-24z" fill="#fc6067"/><circle cx="32" cy="26" fill="#e7eaef" r="18"/><path d="m41 21h-18a.99974.99974 0 0 0 -1 1v10a1.00071 1.00071 0 0 0 .2002.6001 12.53424 12.53424 0 0 0 9.7998 4.3999 12.53424 12.53424 0 0 0 9.7998-4.3999 1.00071 1.00071 0 0 0 .2002-.6001v-10a.99974.99974 0 0 0 -1-1z" fill="#4e5460"/><path d="m45 30a.99974.99974 0 0 1 -1-1v-7a1 1 0 0 1 2 0v7a.99974.99974 0 0 1 -1 1z" fill="#fcb860"/><path d="m45.419 21.0918-13-6a1.00435 1.00435 0 0 0 -.8379 0l-13 6a1.0003 1.0003 0 0 0 0 1.8164l13 6a1.00189 1.00189 0 0 0 .8379 0l13-6a1.0003 1.0003 0 0 0 0-1.8164z" fill="#565d69"/></g></svg>