<svg height="512" viewBox="0 0 64 64" width="512" xmlns="http://www.w3.org/2000/svg"><g id="_22-Gym" data-name="22-Gym"><path d="m32 2a24.0275 24.0275 0 0 0 -24 24c0 18.294 22.44971 35.09766 23.40576 35.8042a.99964.99964 0 0 0 1.18848 0c.95605-.70654 23.40576-17.5102 23.40576-35.8042a24.0275 24.0275 0 0 0 -24-24z" fill="#fc6067"/><circle cx="32" cy="26" fill="#e7eaef" r="18"/><path d="m43 16.58594-1.58594-1.58594a2.0028 2.0028 0 0 0 -2.82812 0l-17.58594 17.58594a2.001 2.001 0 0 0 0 2.82812l1.58594 1.58594a2.00163 2.00163 0 0 0 2.82812 0l17.58594-17.58594a2.001 2.001 0 0 0 0-2.82812z" fill="#4e5460"/><g fill="#565d69"><path d="m43.293 21.87891-7.17191-7.17191a3.00244 3.00244 0 0 0 -4.24218 0l-1.17191 1.17191a3.00244 3.00244 0 0 0 0 4.24218l7.17191 7.17191a3.00363 3.00363 0 0 0 4.24218 0l1.17191-1.17191a3.00244 3.00244 0 0 0 0-4.24218z"/><path d="m26.12109 24.707a3.00244 3.00244 0 0 0 -4.24218 0l-1.17191 1.17191a3.00244 3.00244 0 0 0 0 4.24218l7.17191 7.17191a3.00363 3.00363 0 0 0 4.24218 0l1.17191-1.17191a3.00244 3.00244 0 0 0 0-4.24218z"/></g></g></svg>