<svg height="512" viewBox="0 0 64 64" width="512" xmlns="http://www.w3.org/2000/svg"><g id="_15-Supermarket" data-name="15-Supermarket"><path d="m32 2a24.0275 24.0275 0 0 0 -24 24c0 18.294 22.44971 35.09766 23.40576 35.8042a.99964.99964 0 0 0 1.18848 0c.95605-.70654 23.40576-17.5102 23.40576-35.8042a24.0275 24.0275 0 0 0 -24-24z" fill="#fc6067"/><circle cx="32" cy="26" fill="#e7eaef" r="18"/><path d="m42.82178 20.43018a.999.999 0 0 0 -.82178-.43018h-16.21924l-.43164-1.72754a2.9958 2.9958 0 0 0 -2.91064-2.27246h-1.43848a1 1 0 0 0 0 2h1.43848a.99825.99825 0 0 1 .97021.75781l.61524 2.46094.0122.04932 1.99366 7.97461a1.00026 1.00026 0 0 0 .97021.75732h12a1.0005 1.0005 0 0 0 .93652-.64893l3-8a1.00121 1.00121 0 0 0 -.11474-.92089z" fill="#68b1fc"/><g fill="#565d69"><circle cx="29" cy="34" r="3"/><circle cx="37" cy="34" r="3"/></g></g></svg>